<svg xmlns="http://www.w3.org/2000/svg" xmlns:xlink="http://www.w3.org/1999/xlink" width="1920" zoomAndPan="magnify" viewBox="0 0 1440 809.999993" height="1080" preserveAspectRatio="xMidYMid meet" version="1.0"><defs><g/><clipPath id="dc1396f3af"><path d="M 1006.121094 181.753906 L 1153.871094 181.753906 L 1153.871094 491 L 1006.121094 491 Z M 1006.121094 181.753906 " clip-rule="nonzero"/></clipPath><clipPath id="bbb811adca"><rect x="0" width="617" y="0" height="233"/></clipPath><clipPath id="e2ffe7cacf"><rect x="0" width="375" y="0" height="206"/></clipPath><clipPath id="9b6f5a5e29"><path d="M 290 424 L 530 424 L 530 664 L 290 664 Z M 290 424 " clip-rule="nonzero"/></clipPath><clipPath id="a021633c99"><path d="M 286.285156 537.074219 L 401.367188 421.992188 L 529.175781 549.804688 L 414.09375 664.886719 Z M 286.285156 537.074219 " clip-rule="nonzero"/></clipPath><clipPath id="e540c1bb04"><path d="M 15 79 L 221 79 L 221 162 L 15 162 Z M 15 79 " clip-rule="nonzero"/></clipPath><clipPath id="6c72b2383b"><path d="M -3.714844 113.074219 L 111.367188 -2.007812 L 239.175781 125.804688 L 124.09375 240.886719 Z M -3.714844 113.074219 " clip-rule="nonzero"/></clipPath><clipPath id="89f5ebe7a4"><path d="M 111.15625 -1.796875 L -3.921875 113.28125 L 123.886719 241.09375 L 238.96875 126.011719 Z M 111.15625 -1.796875 " clip-rule="nonzero"/></clipPath><clipPath id="67e0efc7b7"><rect x="0" width="240" y="0" height="240"/></clipPath></defs><rect x="-144" width="1728" fill="#ffffff" y="-80.999999" height="971.999992" fill-opacity="1"/><rect x="-144" width="1728" fill="#000000" y="-80.999999" height="971.999992" fill-opacity="1"/><path fill="#ff3131" d="M 1152.363281 251.960938 C 1152.363281 213.910156 1119.921875 183.0625 1079.90625 183.0625 C 1039.886719 183.0625 1007.445312 213.910156 1007.445312 251.960938 C 1007.445312 280.273438 1025.410156 304.59375 1051.085938 315.1875 L 1051.082031 315.1875 L 1039.628906 331.496094 C 1037.257812 334.871094 1039.671875 339.519531 1043.800781 339.519531 L 1063.65625 339.519531 L 1063.65625 357.585938 L 1050.722656 373.199219 L 1068.117188 390.375 L 1053.84375 404.203125 L 1053.175781 419.371094 L 1069.234375 434.089844 L 1060.3125 443.90625 L 1060.398438 461.585938 L 1083.796875 486.960938 C 1085.691406 488.933594 1088.570312 489.726562 1091.304688 488.863281 C 1092.941406 488.34375 1094.316406 487.214844 1095.265625 485.785156 L 1107.351562 467.542969 L 1107.351562 340.800781 L 1118.234375 340.800781 C 1122.695312 340.800781 1126.742188 337.894531 1127.875 333.582031 C 1128.789062 330.121094 1127.742188 326.539062 1125.285156 324.128906 L 1113.804688 312.863281 C 1136.742188 301.296875 1152.363281 278.367188 1152.363281 251.960938 Z M 1082.003906 237.320312 C 1072.984375 237.320312 1065.671875 230.007812 1065.671875 220.988281 C 1065.671875 211.96875 1072.984375 204.660156 1082.003906 204.660156 C 1091.023438 204.660156 1098.335938 211.96875 1098.335938 220.988281 C 1098.335938 230.007812 1091.023438 237.320312 1082.003906 237.320312 Z M 1082.003906 237.320312 " fill-opacity="1" fill-rule="nonzero"/><g clip-path="url(#dc1396f3af)"><path stroke-linecap="butt" transform="matrix(0.236525, 0, 0, 0.236525, 984.004637, 154.010902)" fill="none" stroke-linejoin="round" d="M 711.799977 414.120898 C 711.799977 253.2468 574.641637 122.826642 405.460417 122.826642 C 236.262681 122.826642 99.104341 253.2468 99.104341 414.120898 C 99.104341 533.822722 175.057526 636.646061 283.611623 681.435154 L 283.595107 681.435154 L 235.172681 750.385915 C 225.147983 764.655007 235.354348 784.308038 252.810864 784.308038 L 336.757383 784.308038 L 336.757383 860.690617 L 282.075713 926.701681 L 355.617687 999.318806 L 295.27132 1057.782445 L 292.447229 1121.910782 L 360.34102 1184.139876 L 322.620412 1225.642454 L 322.983746 1300.390033 L 421.909508 1407.672463 C 429.919357 1416.012614 442.091024 1419.36519 453.651631 1415.715342 C 460.57148 1413.518826 466.384813 1408.745947 470.397995 1402.701402 L 521.495877 1325.57564 L 521.495877 789.725008 L 567.507091 789.725008 C 586.367395 789.725008 603.477093 777.437734 608.266487 759.205006 C 612.131033 744.572581 607.704972 729.428187 597.316941 719.238338 L 548.778908 671.608638 C 645.755883 622.707272 711.799977 525.763328 711.799977 414.120898 Z M 414.329053 352.222107 C 376.195567 352.222107 345.279201 321.305742 345.279201 283.172256 C 345.279201 245.038769 376.195567 214.138919 414.329053 214.138919 C 452.46254 214.138919 483.378905 245.038769 483.378905 283.172256 C 483.378905 321.305742 452.46254 352.222107 414.329053 352.222107 Z M 414.329053 352.222107 " stroke="#000000" stroke-width="11.092" stroke-opacity="1" stroke-miterlimit="10"/></g><path stroke-linecap="butt" transform="matrix(0.236525, 0, 0, 0.236525, 984.004637, 154.010902)" fill-opacity="1" fill="#ff3131" fill-rule="nonzero" stroke-linejoin="round" d="M 392.182234 728.866671 L 419.580872 642.360304 L 420.357084 1405.591553 L 389.771022 1372.825491 Z M 392.182234 728.866671 " stroke="#000000" stroke-width="11.092" stroke-opacity="1" stroke-miterlimit="10"/><g transform="matrix(1, 0, 0, 1, 353, 158)"><g clip-path="url(#bbb811adca)"><g fill="#ffffff" fill-opacity="1"><g transform="translate(33.206462, 183.025918)"><g><path d="M 56.390625 -64.578125 L 60.390625 -47.078125 C 62.828125 -36.398438 62.085938 -27.609375 58.171875 -20.703125 C 54.265625 -13.804688 47.226562 -9.191406 37.0625 -6.859375 C 26.894531 -4.546875 18.550781 -5.648438 12.03125 -10.171875 C 5.519531 -14.691406 1.046875 -22.289062 -1.390625 -32.96875 L -17.046875 -101.5 C -19.484375 -112.175781 -18.742188 -120.960938 -14.828125 -127.859375 C -10.921875 -134.765625 -3.882812 -139.375 6.28125 -141.6875 C 16.445312 -144.019531 24.785156 -142.925781 31.296875 -138.40625 C 37.816406 -133.882812 42.296875 -126.285156 44.734375 -115.609375 L 47.65625 -102.8125 L 28.0625 -98.34375 L 24.84375 -112.46875 C 23.75 -117.226562 22.003906 -120.351562 19.609375 -121.84375 C 17.222656 -123.34375 14.398438 -123.722656 11.140625 -122.984375 C 7.878906 -122.234375 5.492188 -120.664062 3.984375 -118.28125 C 2.484375 -115.894531 2.28125 -112.320312 3.375 -107.5625 L 19.625 -36.375 C 20.71875 -31.601562 22.453125 -28.5 24.828125 -27.0625 C 27.203125 -25.625 30.019531 -25.28125 33.28125 -26.03125 C 36.539062 -26.769531 38.929688 -28.300781 40.453125 -30.625 C 41.972656 -32.957031 42.1875 -36.507812 41.09375 -41.28125 L 36.796875 -60.109375 Z M 56.390625 -64.578125 "/></g></g></g><g fill="#ffffff" fill-opacity="1"><g transform="translate(102.774064, 166.881207)"><g><path d="M 28.625 -4.453125 L 7.625 -1.1875 L -13.125 -134.78125 L 7.875 -138.046875 L 16.765625 -80.78125 L 40.625 -84.484375 L 31.734375 -141.75 L 53.109375 -145.0625 L 73.859375 -11.46875 L 52.484375 -8.15625 L 43.59375 -65.40625 L 19.734375 -61.703125 Z M 28.625 -4.453125 "/></g></g></g><g fill="#ffffff" fill-opacity="1"><g transform="translate(181.075784, 154.673959)"><g><path d="M 76.234375 -6.25 L 54.859375 -4.5 L 49.203125 -28.65625 L 23.21875 -26.515625 L 21.546875 -1.765625 L 2.125 -0.171875 L 12.625 -136.6875 L 43.625 -139.234375 Z M 24.40625 -45.03125 L 44.828125 -46.703125 L 29.015625 -114 Z M 24.40625 -45.03125 "/></g></g></g><g fill="#ffffff" fill-opacity="1"><g transform="translate(256.296626, 148.407621)"><g><path d="M 39.484375 -25.390625 L 54.421875 -135.84375 L 73.921875 -136.078125 L 54.65625 -0.640625 L 22.984375 -0.265625 L 0.53125 -135.21875 L 21.96875 -135.46875 Z M 39.484375 -25.390625 "/></g></g></g><g fill="#ffffff" fill-opacity="1"><g transform="translate(330.951632, 147.53647)"><g><path d="M 33.21875 -76.5 L 62.34375 -74.90625 L 61.28125 -55.625 L 32.15625 -57.21875 L 29.984375 -17.6875 L 66.640625 -15.671875 L 65.578125 3.609375 L 7.703125 0.421875 L 15.125 -134.578125 L 73 -131.390625 L 71.9375 -112.109375 L 35.28125 -114.125 Z M 33.21875 -76.5 "/></g></g></g><g fill="#ffffff" fill-opacity="1"><g transform="translate(399.724431, 151.680808)"><g><path d="M 21.609375 -133.6875 L 42.75 -131.5 L 28.8125 2.984375 L 7.671875 0.796875 Z M 21.609375 -133.6875 "/></g></g></g><g fill="#ffffff" fill-opacity="1"><g transform="translate(434.012517, 154.645491)"><g><path d="M 51.515625 8.03125 C 51.410156 7.09375 51.285156 6.222656 51.140625 5.421875 C 51.003906 4.617188 50.929688 3.628906 50.921875 2.453125 C 50.910156 1.273438 51.015625 -0.203125 51.234375 -1.984375 C 51.453125 -3.765625 51.769531 -5.992188 52.1875 -8.671875 L 55.453125 -29.671875 C 56.421875 -35.898438 56.019531 -40.457031 54.25 -43.34375 C 52.488281 -46.226562 49.1875 -48.046875 44.34375 -48.796875 L 37.09375 -49.9375 L 28.625 4.453125 L 7.625 1.1875 L 28.4375 -132.40625 L 60.125 -127.46875 C 71.0625 -125.769531 78.582031 -121.992188 82.6875 -116.140625 C 86.789062 -110.285156 88.039062 -102.207031 86.4375 -91.90625 L 84.8125 -81.40625 C 82.664062 -67.664062 76.675781 -59.34375 66.84375 -56.4375 C 71.84375 -53.4375 74.945312 -49.332031 76.15625 -44.125 C 77.375 -38.925781 77.4375 -32.832031 76.34375 -25.84375 L 73.140625 -5.21875 C 72.617188 -1.90625 72.289062 1.003906 72.15625 3.515625 C 72.03125 6.035156 72.28125 8.648438 72.90625 11.359375 Z M 46.453125 -110.0625 L 40.0625 -69.015625 L 48.28125 -67.734375 C 52.21875 -67.117188 55.457031 -67.65625 58 -69.34375 C 60.539062 -71.039062 62.226562 -74.554688 63.0625 -79.890625 L 65.125 -93.0625 C 65.875 -97.894531 65.554688 -101.53125 64.171875 -103.96875 C 62.796875 -106.40625 60.257812 -107.910156 56.5625 -108.484375 Z M 46.453125 -110.0625 "/></g></g></g><g fill="#ffffff" fill-opacity="1"><g transform="translate(507.69483, 166.032681)"><g><path d="M 33.453125 -24.265625 C 32.367188 -19.492188 32.578125 -15.914062 34.078125 -13.53125 C 35.578125 -11.15625 37.957031 -9.59375 41.21875 -8.84375 C 44.488281 -8.101562 47.316406 -8.484375 49.703125 -9.984375 C 52.085938 -11.484375 53.820312 -14.617188 54.90625 -19.390625 L 71.109375 -90.59375 C 72.191406 -95.351562 71.984375 -98.925781 70.484375 -101.3125 C 68.984375 -103.707031 66.597656 -105.273438 63.328125 -106.015625 C 60.066406 -106.765625 57.242188 -106.382812 54.859375 -104.875 C 52.472656 -103.363281 50.738281 -100.226562 49.65625 -95.46875 Z M 28.609375 -98.859375 C 31.035156 -109.535156 35.597656 -117.113281 42.296875 -121.59375 C 49.003906 -126.082031 57.441406 -127.171875 67.609375 -124.859375 C 77.785156 -122.546875 84.921875 -117.914062 89.015625 -110.96875 C 93.117188 -104.03125 93.957031 -95.222656 91.53125 -84.546875 L 75.953125 -16 C 73.523438 -5.320312 68.957031 2.253906 62.25 6.734375 C 55.550781 11.222656 47.113281 12.3125 36.9375 10 C 26.769531 7.6875 19.632812 3.0625 15.53125 -3.875 C 11.4375 -10.820312 10.601562 -19.632812 13.03125 -30.3125 Z M 28.609375 -98.859375 "/></g></g></g></g></g><g transform="matrix(1, 0, 0, 1, 478, 329)"><g clip-path="url(#e2ffe7cacf)"><g fill="#ffffff" fill-opacity="1"><g transform="translate(3.385179, 158.799505)"><g><path d="M 25.171875 -92.5 L 25.171875 0 L 7.109375 0 L 7.109375 -127.703125 L 32.296875 -127.703125 L 52.90625 -51.265625 L 52.90625 -127.703125 L 70.78125 -127.703125 L 70.78125 0 L 50.171875 0 Z M 25.171875 -92.5 "/></g></g></g><g fill="#ffffff" fill-opacity="1"><g transform="translate(81.281354, 158.799505)"><g><path d="M 72.25 0 L 52 0 L 48.53125 -23.171875 L 23.90625 -23.171875 L 20.4375 0 L 2 0 L 22.4375 -127.703125 L 51.8125 -127.703125 Z M 26.453125 -40.5 L 45.796875 -40.5 L 36.125 -105.078125 Z M 26.453125 -40.5 "/></g></g></g><g fill="#ffffff" fill-opacity="1"><g transform="translate(155.529002, 158.799505)"><g><path d="M 18.96875 18.0625 L 30.65625 18.0625 L 30.65625 19.890625 C 30.65625 21.222656 31.046875 22.101562 31.828125 22.53125 C 32.617188 22.957031 33.503906 23.171875 34.484375 23.171875 C 37.640625 23.171875 39.21875 21.585938 39.21875 18.421875 C 39.21875 15.015625 37.03125 13.3125 32.65625 13.3125 L 30.65625 13.3125 L 30.65625 1.09375 C 22.257812 0.238281 15.992188 -2.890625 11.859375 -8.296875 C 7.722656 -13.710938 5.65625 -21.164062 5.65625 -30.65625 L 5.65625 -97.0625 C 5.65625 -107.394531 8.175781 -115.328125 13.21875 -120.859375 C 18.269531 -126.398438 25.722656 -129.171875 35.578125 -129.171875 C 45.429688 -129.171875 52.878906 -126.398438 57.921875 -120.859375 C 62.972656 -115.328125 65.5 -107.394531 65.5 -97.0625 L 65.5 -84.65625 L 46.515625 -84.65625 L 46.515625 -98.328125 C 46.515625 -102.953125 45.570312 -106.207031 43.6875 -108.09375 C 41.800781 -109.976562 39.28125 -110.921875 36.125 -110.921875 C 32.957031 -110.921875 30.429688 -109.976562 28.546875 -108.09375 C 26.660156 -106.207031 25.71875 -102.953125 25.71875 -98.328125 L 25.71875 -29.375 C 25.71875 -24.75 26.660156 -21.523438 28.546875 -19.703125 C 30.429688 -17.878906 32.957031 -16.96875 36.125 -16.96875 C 39.28125 -16.96875 41.800781 -17.878906 43.6875 -19.703125 C 45.570312 -21.523438 46.515625 -24.75 46.515625 -29.375 L 46.515625 -47.609375 L 65.5 -47.609375 L 65.5 -30.65625 C 65.5 -21.164062 63.335938 -13.648438 59.015625 -8.109375 C 54.703125 -2.578125 48.285156 0.550781 39.765625 1.28125 L 39.765625 7.109375 C 43.296875 7.109375 46.09375 8.050781 48.15625 9.9375 C 50.226562 11.820312 51.265625 14.347656 51.265625 17.515625 C 51.265625 22.984375 49.617188 26.84375 46.328125 29.09375 C 43.046875 31.34375 39.15625 32.46875 34.65625 32.46875 C 30.519531 32.46875 26.867188 31.429688 23.703125 29.359375 C 20.546875 27.296875 18.96875 24.140625 18.96875 19.890625 Z M 18.96875 18.0625 "/></g></g></g><g fill="#ffffff" fill-opacity="1"><g transform="translate(225.945674, 158.799505)"><g><path d="M 72.25 0 L 52 0 L 48.53125 -23.171875 L 23.90625 -23.171875 L 20.4375 0 L 2 0 L 22.4375 -127.703125 L 51.8125 -127.703125 Z M 26.453125 -40.5 L 45.796875 -40.5 L 36.125 -105.078125 Z M 64.21875 -146.859375 C 61.175781 -141.503906 58.347656 -138.003906 55.734375 -136.359375 C 53.117188 -134.722656 50.171875 -133.90625 46.890625 -133.90625 C 44.816406 -133.90625 42.925781 -134.148438 41.21875 -134.640625 C 39.519531 -135.128906 37.941406 -135.707031 36.484375 -136.375 C 35.023438 -137.039062 33.625 -137.613281 32.28125 -138.09375 C 30.945312 -138.582031 29.550781 -138.828125 28.09375 -138.828125 C 26.394531 -138.828125 24.9375 -138.429688 23.71875 -137.640625 C 22.5 -136.859375 21.28125 -135.25 20.0625 -132.8125 L 9.859375 -140.484375 C 12.890625 -145.828125 15.710938 -149.320312 18.328125 -150.96875 C 20.941406 -152.613281 23.894531 -153.4375 27.1875 -153.4375 C 29.25 -153.4375 31.128906 -153.191406 32.828125 -152.703125 C 34.535156 -152.210938 36.117188 -151.632812 37.578125 -150.96875 C 39.035156 -150.300781 40.429688 -149.722656 41.765625 -149.234375 C 43.109375 -148.742188 44.507812 -148.5 45.96875 -148.5 C 47.675781 -148.5 49.132812 -148.894531 50.34375 -149.6875 C 51.5625 -150.476562 52.78125 -152.09375 54 -154.53125 Z M 64.21875 -146.859375 "/></g></g></g><g fill="#ffffff" fill-opacity="1"><g transform="translate(300.193322, 158.799505)"><g><path d="M 25.71875 -29.375 C 25.71875 -24.75 26.660156 -21.492188 28.546875 -19.609375 C 30.429688 -17.722656 32.957031 -16.78125 36.125 -16.78125 C 39.28125 -16.78125 41.800781 -17.722656 43.6875 -19.609375 C 45.570312 -21.492188 46.515625 -24.75 46.515625 -29.375 L 46.515625 -98.328125 C 46.515625 -102.953125 45.570312 -106.207031 43.6875 -108.09375 C 41.800781 -109.976562 39.28125 -110.921875 36.125 -110.921875 C 32.957031 -110.921875 30.429688 -109.976562 28.546875 -108.09375 C 26.660156 -106.207031 25.71875 -102.953125 25.71875 -98.328125 Z M 5.65625 -97.0625 C 5.65625 -107.394531 8.269531 -115.328125 13.5 -120.859375 C 18.726562 -126.398438 26.269531 -129.171875 36.125 -129.171875 C 45.976562 -129.171875 53.519531 -126.398438 58.75 -120.859375 C 63.976562 -115.328125 66.59375 -107.394531 66.59375 -97.0625 L 66.59375 -30.65625 C 66.59375 -20.3125 63.976562 -12.375 58.75 -6.84375 C 53.519531 -1.3125 45.976562 1.453125 36.125 1.453125 C 26.269531 1.453125 18.726562 -1.3125 13.5 -6.84375 C 8.269531 -12.375 5.65625 -20.3125 5.65625 -30.65625 Z M 5.65625 -97.0625 "/></g></g></g></g></g><path stroke-linecap="butt" transform="matrix(0.75, 0.000000000000000117, -0.000000000000000117, 0.75, 535.496691, 529.763369)" fill="none" stroke-linejoin="miter" d="M -0.00079671 10.9978 L 731.707573 10.9978 " stroke="#ff3131" stroke-width="22" stroke-opacity="1" stroke-miterlimit="4"/><g clip-path="url(#9b6f5a5e29)"><g clip-path="url(#a021633c99)"><g transform="matrix(1, 0, 0, 1, 290, 424)"><g clip-path="url(#67e0efc7b7)"><g clip-path="url(#e540c1bb04)"><g clip-path="url(#6c72b2383b)"><g clip-path="url(#89f5ebe7a4)"><path fill="#ff3131" d="M 183.722656 157 C 183.035156 157 182.398438 157.527344 182.398438 158.054688 L 182.398438 160.019531 C 182.398438 161.070312 181.542969 161.925781 180.488281 161.925781 L 170.792969 161.925781 C 169.738281 161.925781 168.886719 161.074219 168.886719 160.019531 L 168.886719 122.503906 C 168.886719 122.273438 168.929688 122.054688 169.003906 121.851562 L 162.308594 121.851562 L 162.308594 122.566406 C 162.308594 123.621094 161.457031 124.472656 160.402344 124.472656 L 157.066406 124.472656 C 156.011719 124.472656 155.15625 123.621094 155.15625 122.566406 L 155.15625 121.851562 L 81.152344 121.851562 C 77.355469 136.261719 64.242188 146.886719 48.640625 146.886719 C 30.074219 146.886719 15.023438 131.832031 15.023438 113.265625 C 15.023438 94.699219 30.074219 79.648438 48.640625 79.648438 C 64.242188 79.648438 77.355469 90.277344 81.152344 104.683594 L 155.15625 104.683594 L 155.15625 103.96875 C 155.15625 102.914062 156.011719 102.058594 157.066406 102.058594 L 160.402344 102.058594 C 161.457031 102.058594 162.308594 102.914062 162.308594 103.96875 L 162.308594 104.683594 L 214.453125 104.683594 C 217.613281 104.683594 220.175781 107.242188 220.175781 110.40625 L 220.175781 116.128906 C 220.175781 119.289062 217.613281 121.851562 214.453125 121.851562 L 203.738281 121.851562 C 203.816406 122.054688 203.855469 122.273438 203.855469 122.503906 L 203.855469 160.019531 C 203.855469 161.074219 203.003906 161.925781 201.949219 161.925781 L 192.253906 161.925781 C 191.199219 161.925781 190.34375 161.074219 190.34375 160.019531 L 190.34375 158.058594 C 190.34375 157.527344 189.710938 157 189.019531 157 Z M 48.640625 92.40625 C 37.132812 92.40625 27.777344 101.761719 27.777344 113.265625 C 27.777344 124.769531 37.132812 134.128906 48.640625 134.128906 C 60.140625 134.128906 69.5 124.769531 69.5 113.265625 C 69.5 101.761719 60.140625 92.402344 48.640625 92.40625 Z M 48.640625 92.40625 " fill-opacity="1" fill-rule="nonzero"/></g></g></g></g></g></g></g></svg>