<?xml version="1.0" standalone="no"?>
<!DOCTYPE svg PUBLIC "-//W3C//DTD SVG 20010904//EN"
 "http://www.w3.org/TR/2001/REC-SVG-20010904/DTD/svg10.dtd">
<svg version="1.0" xmlns="http://www.w3.org/2000/svg"
 width="96.000000pt" height="96.000000pt" viewBox="0 0 96.000000 96.000000"
 preserveAspectRatio="xMidYMid meet">

<g transform="translate(0.000000,96.000000) scale(0.100000,-0.100000)"
fill="#000000" stroke="none">
<path d="M593 600 c-18 -10 -39 -33 -48 -49 l-15 -31 -173 -2 c-157 -3 -172
-5 -175 -21 -3 -12 4 -20 17 -24 16 -4 21 -13 21 -39 0 -27 4 -34 20 -34 11 0
20 7 20 15 0 8 7 15 15 15 8 0 15 -7 15 -15 0 -8 9 -15 20 -15 16 0 20 7 20
35 l0 35 100 0 99 0 16 -30 c19 -37 70 -70 108 -70 64 0 127 62 127 125 0 63
-63 125 -127 125 -15 0 -42 -9 -60 -20z m107 -60 c39 -39 11 -110 -44 -110
-25 0 -66 41 -66 65 0 7 9 24 21 39 25 31 61 34 89 6z"/>
</g>
</svg>
